<svg width="153" height="34" viewBox="0 0 153 34" fill="none" xmlns="http://www.w3.org/2000/svg">
<path d="M13.9525 2.33008C13.9525 0.258354 11.4477 -0.779171 9.98277 0.685761C9.54667 1.12186 9.30167 1.71334 9.30167 2.33008V31.6699C9.30167 32.2867 9.54667 32.8781 9.98277 33.3142C11.4477 34.7792 13.9525 33.7416 13.9525 31.6699V2.33008Z" fill="#1CD265"/>
<path d="M18.6033 31.6699C18.6033 33.7416 21.1081 34.7792 22.5731 33.3142C23.0092 32.8781 23.2542 32.2867 23.2542 31.6699V2.33008C23.2542 1.71334 23.0092 1.12186 22.5731 0.685762C21.1081 -0.779171 18.6033 0.258355 18.6033 2.33008V31.6699Z" fill="#1CD265"/>
<path d="M27.905 6.0177V27.9823L32.5559 23.3315V10.6685L27.905 6.0177Z" fill="#1CD265"/>
<path d="M4.65084 27.9823V6.0177L0 10.6685V23.3315L4.65084 27.9823Z" fill="#1CD265"/>
<path d="M40.6511 11.1124H42.8072L46.5558 20.2655H46.6938L50.4424 11.1124H52.5985V22.8873H50.9082V14.3666H50.7989L47.3262 22.87H45.9234L42.4507 14.3608H42.3415V22.8873H40.6511V11.1124Z" fill="#F5F7F9"/>
<path d="M59.4142 22.8873H57.5284L61.7657 11.1124H63.8183L68.0556 22.8873H66.1698L62.8409 13.2512H62.7489L59.4142 22.8873ZM59.7304 18.2762H65.8478V19.7711H59.7304V18.2762Z" fill="#F5F7F9"/>
<path d="M82.498 11.1124V22.8873H80.8651L74.8799 14.2516H74.7707V22.8873H72.9941V11.1124H74.6385L80.6294 19.7596H80.7386V11.1124H82.498Z" fill="#F5F7F9"/>
<path d="M92.1395 22.8873H88.3276V11.1124H92.2603C93.414 11.1124 94.4048 11.3481 95.2327 11.8196C96.0607 12.2872 96.695 12.9599 97.1358 13.8376C97.5804 14.7116 97.8027 15.7599 97.8027 16.9826C97.8027 18.2091 97.5785 19.2632 97.1301 20.1448C96.6854 21.0264 96.0415 21.7048 95.1982 22.1801C94.355 22.6516 93.3354 22.8873 92.1395 22.8873ZM90.1042 21.3349H92.0418C92.9387 21.3349 93.6842 21.1663 94.2783 20.829C94.8724 20.4879 95.3171 19.9953 95.6122 19.3514C95.9073 18.7036 96.0549 17.914 96.0549 16.9826C96.0549 16.0589 95.9073 15.275 95.6122 14.6311C95.3209 13.9871 94.8858 13.4984 94.3071 13.165C93.7283 12.8315 93.0096 12.6648 92.151 12.6648H90.1042V21.3349Z" fill="#F5F7F9"/>
<path d="M113.478 16.9998C113.478 18.2571 113.248 19.338 112.788 20.2425C112.328 21.1433 111.698 21.8371 110.897 22.3238C110.1 22.8068 109.193 23.0483 108.177 23.0483C107.158 23.0483 106.247 22.8068 105.446 22.3238C104.649 21.8371 104.02 21.1414 103.561 20.2368C103.101 19.3322 102.871 18.2532 102.871 16.9998C102.871 15.7426 103.101 14.6637 103.561 13.7629C104.02 12.8583 104.649 12.1646 105.446 11.6816C106.247 11.1948 107.158 10.9514 108.177 10.9514C109.193 10.9514 110.1 11.1948 110.897 11.6816C111.698 12.1646 112.328 12.8583 112.788 13.7629C113.248 14.6637 113.478 15.7426 113.478 16.9998ZM111.719 16.9998C111.719 16.0416 111.564 15.2348 111.253 14.5793C110.947 13.9201 110.525 13.4218 109.988 13.0845C109.456 12.7433 108.852 12.5728 108.177 12.5728C107.499 12.5728 106.893 12.7433 106.361 13.0845C105.828 13.4218 105.406 13.9201 105.096 14.5793C104.789 15.2348 104.636 16.0416 104.636 16.9998C104.636 17.9581 104.789 18.7668 105.096 19.4261C105.406 20.0816 105.828 20.5798 106.361 20.921C106.893 21.2583 107.499 21.4269 108.177 21.4269C108.852 21.4269 109.456 21.2583 109.988 20.921C110.525 20.5798 110.947 20.0816 111.253 19.4261C111.564 18.7668 111.719 17.9581 111.719 16.9998Z" fill="#F5F7F9"/>
<path d="M118.931 22.8873V11.1124H120.708V21.3579H126.044V22.8873H118.931Z" fill="#F5F7F9"/>
<path d="M131.308 22.8873V11.1124H133.085V21.3579H138.42V22.8873H131.308Z" fill="#F5F7F9"/>
<path d="M141.907 11.1124H143.925L147.001 16.4651H147.128L150.204 11.1124H152.222L147.95 18.2647V22.8873H146.179V18.2647L141.907 11.1124Z" fill="#F5F7F9"/>
</svg>
